<svg version="1.0" xmlns="http://www.w3.org/2000/svg"
 width="500.000000pt" height="500.000000pt" viewBox="0 0 500.000000 500.000000"
 preserveAspectRatio="xMidYMid meet">

<g transform="translate(0.000000,500.000000) scale(0.100000,-0.100000)"
fill="#000000" stroke="none">
<path d="M2310 3834 c-69 -19 -170 -46 -225 -60 -55 -15 -217 -60 -360 -102
-143 -41 -270 -76 -283 -79 -38 -9 -34 -22 10 -33 190 -49 460 -128 468 -136
6 -6 7 -67 1 -159 -5 -83 -8 -151 -6 -153 1 -2 58 -4 126 -6 129 -3 229 -22
334 -61 l61 -23 68 24 c108 38 210 55 326 55 93 0 109 2 115 17 3 9 3 82 -1
162 l-7 146 40 12 c22 7 45 12 52 12 16 0 14 -45 -4 -60 -9 -7 -15 -29 -15
-54 0 -38 -15 -320 -22 -395 -3 -32 0 -35 32 -44 48 -12 113 7 105 31 -12 38
-24 172 -25 263 0 53 -3 99 -7 103 -4 4 -6 25 -4 46 1 24 -4 48 -13 62 -34 48
-28 52 182 108 108 29 200 56 205 60 4 3 -77 30 -180 59 -104 30 -208 62 -233
73 -25 11 -56 20 -70 20 -14 0 -70 13 -125 28 -55 16 -167 47 -248 70 -82 23
-154 43 -160 45 -7 2 -68 -12 -137 -31z m615 -265 c-122 -8 -348 -35 -410 -50
-53 -11 -72 -11 -60 0 23 22 326 58 485 58 l95 0 -110 -8z m-193 -189 c20 -28
34 -118 21 -137 -5 -7 -34 -15 -66 -19 l-57 -7 0 39 c0 65 11 112 32 134 24
26 45 23 70 -10z m23 -179 l-20 -8 20 -5 c14 -4 11 -6 -11 -7 -21 -1 -31 4
-31 14 0 10 10 15 31 14 26 0 28 -2 11 -8z"/>
<path d="M3350 2895 c-184 -23 -404 -50 -487 -60 -165 -19 -205 -32 -70 -22
350 26 773 65 840 79 57 11 58 10 88 -18 85 -81 103 -226 38 -309 -17 -20 -24
-24 -30 -13 -7 11 -9 11 -9 -1 0 -8 -6 -11 -16 -7 -10 4 -13 2 -8 -7 5 -9 4
-9 -5 -1 -7 7 -33 8 -74 3 -34 -4 -123 -8 -197 -9 -74 -1 -236 -9 -360 -17
-124 -8 -260 -17 -304 -19 -43 -3 -125 -11 -182 -18 -57 -6 -108 -8 -112 -4
-5 5 -26 11 -48 13 -21 3 -47 8 -56 11 -22 7 -62 76 -82 143 -14 49 -14 57 -1
78 9 13 22 23 30 23 21 0 105 -40 105 -51 0 -4 16 -11 37 -15 29 -5 39 -3 49
11 12 16 18 17 39 7 21 -10 30 -9 51 5 l25 16 -48 50 -48 49 -98 -5 c-93 -5
-101 -4 -155 24 -67 34 -89 35 -121 9 -22 -19 -22 -21 -7 -45 9 -14 27 -27 41
-31 14 -3 25 -7 25 -8 0 -2 -29 -34 -65 -72 -36 -38 -76 -81 -90 -96 -27 -32
-63 -35 -190 -18 -39 5 -122 12 -185 15 -63 3 -128 8 -145 10 -16 2 -59 7 -95
10 -62 5 -168 15 -345 32 -44 4 -86 7 -93 6 -8 0 -12 18 -12 61 -1 57 -2 59
-14 36 -8 -14 -17 -46 -21 -71 -7 -47 9 -79 40 -79 7 0 16 -7 19 -16 9 -22 8
-22 -16 -26 -31 -4 -29 -30 2 -44 14 -6 126 -17 250 -23 124 -6 253 -14 288
-18 l63 -6 -26 -27 c-15 -15 -46 -42 -70 -59 l-43 -31 -39 43 c-21 23 -47 53
-57 67 l-18 25 -156 -161 c-223 -228 -238 -237 -317 -189 -22 14 -45 25 -52
25 -14 0 -29 -47 -38 -119 l-7 -54 -65 7 c-35 4 -82 14 -104 23 -22 8 -43 13
-46 10 -10 -11 26 -56 70 -88 221 -161 743 -273 1395 -299 136 -6 275 -17 316
-25 97 -20 229 -21 284 -1 55 20 100 24 297 31 575 19 1043 105 1340 245 44
20 89 46 100 56 11 11 37 32 58 48 21 15 37 30 35 32 -2 2 -33 -6 -68 -17 -36
-11 -101 -23 -144 -26 -76 -6 -79 -5 -71 13 5 10 10 55 13 98 l4 79 -65 -37
c-36 -20 -74 -36 -84 -36 -37 0 -131 74 -263 208 -74 76 -152 153 -172 171
l-37 34 -55 -51 -55 -52 92 -70 c51 -39 136 -103 190 -142 54 -38 103 -81 110
-95 7 -13 35 -41 63 -61 56 -43 69 -78 32 -87 -13 -2 -187 -37 -388 -76 -201
-38 -477 -93 -614 -120 -137 -27 -259 -49 -271 -49 -12 0 -29 -10 -37 -22 -14
-21 -20 -22 -144 -20 -115 3 -131 5 -143 23 -7 10 -22 19 -32 19 -10 0 -153
27 -316 60 -164 34 -334 67 -378 75 -156 28 -570 117 -598 129 l-29 11 38 38
c20 20 44 37 51 37 8 0 1 -11 -16 -26 -17 -14 -31 -31 -31 -38 0 -7 25 -17 58
-23 31 -5 158 -31 282 -56 301 -61 883 -174 943 -183 67 -9 60 10 -10 26 -32
8 -81 21 -110 31 -28 9 -111 29 -185 43 -73 14 -194 37 -268 51 -199 39 -224
43 -265 45 l-30 2 30 9 c16 4 32 5 35 1 3 -4 25 -8 50 -9 l45 -3 -50 15 c-27
8 -77 19 -110 25 -89 15 -138 32 -153 51 -15 22 -66 48 -106 55 -17 3 -32 7
-34 9 -10 10 68 15 103 7 36 -9 37 -10 11 -11 -19 -1 -26 -5 -20 -10 5 -6 26
-6 55 0 37 8 90 4 265 -20 121 -16 278 -37 351 -46 130 -16 261 -46 337 -79
22 -9 41 -14 43 -12 2 2 -29 17 -69 34 -88 37 -181 56 -398 81 -282 34 -551
72 -635 90 l-80 18 45 23 c25 13 88 51 140 85 84 54 99 60 125 53 32 -9 174
-3 320 13 181 20 323 26 473 19 l153 -8 54 -36 c30 -20 59 -36 64 -36 5 0 21
17 36 38 72 96 107 106 415 121 253 13 433 41 423 67 -3 8 7 15 29 18 18 3 64
10 102 16 39 6 115 13 169 15 110 5 136 15 164 68 13 24 18 54 18 117 -1 72
-5 94 -29 142 -31 66 -67 98 -105 97 -14 -1 -177 -20 -361 -44z m-2079 -875
c6 0 8 -4 5 -9 -8 -12 -46 -2 -46 11 0 6 7 7 16 4 9 -3 20 -6 25 -6z m-122
-27 c2 -1 -5 -1 -16 0 -11 0 -20 7 -20 14 0 10 4 10 16 1 9 -7 18 -13 20 -15z
m84 -20 c-7 -2 -19 -2 -25 0 -7 3 -2 5 12 5 14 0 19 -2 13 -5z m60 -10 c-7 -2
-19 -2 -25 0 -7 3 -2 5 12 5 14 0 19 -2 13 -5z m130 -22 c10 -11 4 -12 -33 -6
-74 12 -92 24 -32 21 29 -1 58 -8 65 -15z m54 3 c-3 -3 -12 -4 -19 -1 -8 3 -5
6 6 6 11 1 17 -2 13 -5z"/>
<path d="M1080 2881 c0 -17 4 -32 9 -35 4 -3 87 -10 182 -15 202 -12 621 -22
599 -16 -8 3 -132 19 -275 35 -143 17 -300 37 -350 45 -49 8 -107 15 -127 15
-35 0 -38 -2 -38 -29z"/>
<path d="M1908 2803 c6 -2 18 -2 25 0 6 3 1 5 -13 5 -14 0 -19 -2 -12 -5z"/>
<path d="M1375 2045 c46 -14 118 -27 155 -27 8 -1 21 -5 28 -11 6 -5 12 -6 12
-2 0 4 7 2 15 -5 11 -9 15 -10 15 -1 0 7 8 10 18 7 15 -4 58 -11 142 -21 14
-2 52 -6 85 -9 98 -8 5 10 -175 34 -85 11 -170 24 -190 29 -19 5 -62 12 -95
15 l-60 6 50 -15z"/>
<path d="M3245 2040 l-30 -8 30 0 c17 0 44 4 60 8 l30 8 -30 0 c-16 0 -43 -4
-60 -8z"/>
<path d="M3163 2023 c9 -2 23 -2 30 0 6 3 -1 5 -18 5 -16 0 -22 -2 -12 -5z"/>
<path d="M3050 2013 c-211 -32 -306 -57 -376 -97 -16 -10 -20 -14 -9 -10 11 4
55 20 97 35 42 16 146 39 230 53 84 13 137 24 118 24 -19 -1 -46 -2 -60 -5z"/>
<path d="M3888 1995 c-3 -3 -88 -21 -189 -40 -174 -32 -284 -52 -684 -125
-197 -36 -342 -72 -402 -101 -40 -19 -44 -19 -89 -4 -44 15 -51 15 -101 -1
-30 -9 -53 -23 -53 -30 0 -11 24 -14 110 -14 88 0 110 3 110 14 0 16 42 31
115 41 28 4 149 26 270 50 121 24 339 67 485 95 434 84 474 94 441 114 -4 3
-10 3 -13 1z"/>
<path d="M1635 1910 c27 -12 43 -12 25 0 -8 5 -22 9 -30 9 -10 0 -8 -3 5 -9z"/>
<path d="M2758 1545 c-4 -17 0 -29 11 -35 14 -7 12 -13 -13 -39 -23 -24 -27
-34 -18 -43 18 -18 94 39 105 79 14 48 4 63 -42 63 -33 0 -39 -3 -43 -25z"/>
<path d="M1733 1539 c-46 -29 -68 -82 -54 -130 9 -31 22 -44 76 -75 36 -21 65
-42 65 -46 0 -14 -65 -8 -88 8 -19 13 -26 13 -38 3 -48 -40 -36 -89 26 -108
86 -26 179 20 200 98 17 64 -1 96 -76 131 -69 33 -84 53 -31 43 34 -6 35 -6
54 -4 11 1 43 50 43 66 0 12 -70 35 -107 35 -21 0 -52 -9 -70 -21z"/>
<path d="M2010 1546 c-39 -22 -73 -90 -66 -131 7 -37 29 -58 100 -95 25 -14
46 -28 46 -32 0 -13 -50 -9 -80 7 -28 14 -29 14 -50 -15 -27 -38 -23 -61 15
-80 95 -47 214 16 218 117 2 52 -19 77 -90 109 -29 12 -53 26 -53 29 0 3 20 3
44 0 40 -6 46 -5 61 19 9 14 15 33 13 43 -7 39 -106 57 -158 29z"/>
<path d="M2372 1544 c-21 -15 -22 -21 -22 -178 0 -188 -7 -176 101 -176 78 0
123 15 162 54 105 105 73 268 -61 306 -57 15 -154 13 -180 -6z m172 -113 c10
-10 20 -39 23 -63 6 -53 -8 -68 -72 -76 l-45 -5 0 80 c0 44 3 83 7 87 12 12
66 -3 87 -23z"/>
<path d="M3424 1551 c-27 -12 -72 -66 -80 -96 -9 -36 21 -76 87 -117 32 -21
59 -42 59 -48 0 -15 -57 -12 -90 5 -27 14 -30 14 -49 -11 -22 -28 -25 -42 -13
-61 23 -36 138 -44 188 -14 35 21 64 75 64 118 0 42 -25 71 -86 98 -30 13 -54
28 -54 33 0 5 22 7 48 4 47 -4 49 -3 62 28 11 27 11 34 -3 47 -18 18 -102 27
-133 14z"/>
<path d="M3695 1546 c-43 -19 -66 -49 -72 -95 -7 -52 9 -77 84 -127 l58 -39
-33 -3 c-20 -2 -44 4 -59 14 -26 16 -27 16 -45 -6 -44 -54 -4 -100 87 -100 88
0 145 51 145 130 0 56 -23 81 -89 101 -67 20 -73 59 -6 40 31 -8 39 -7 56 10
30 30 24 58 -16 75 -42 17 -71 17 -110 0z"/>
<path d="M1243 1535 c-9 -10 -13 -60 -13 -174 0 -149 1 -160 19 -166 28 -9 70
4 81 25 6 10 10 31 10 47 1 27 2 27 21 -12 27 -52 45 -65 88 -65 33 1 71 18
71 34 0 3 -25 45 -57 91 l-56 85 25 28 c13 15 39 47 57 72 l32 45 -48 3 c-32
2 -51 -1 -58 -11 -5 -7 -27 -33 -47 -57 l-38 -44 0 57 0 57 -37 0 c-21 -1 -44
-7 -50 -15z"/>
<path d="M1556 1528 c-16 -19 -19 -39 -18 -171 1 -154 4 -166 43 -167 8 0 24
6 35 14 17 13 19 28 19 180 l0 166 -30 0 c-19 0 -38 -8 -49 -22z"/>
<path d="M2910 1535 c-16 -19 -15 -312 1 -331 15 -18 39 -18 67 2 17 11 22 25
22 57 l0 42 33 -55 c28 -46 38 -55 66 -58 33 -3 81 20 81 38 0 6 -25 47 -55
92 -32 48 -51 86 -46 92 4 6 30 38 56 71 l49 60 -49 3 c-46 3 -49 1 -91 -45
l-43 -48 -1 48 0 47 -39 0 c-22 0 -44 -6 -51 -15z"/>
<path d="M3222 1525 c-13 -27 -17 -290 -6 -319 7 -18 36 -21 65 -6 18 10 19
23 19 180 l0 170 -33 0 c-26 0 -36 -6 -45 -25z"/>
</g>
</svg>
